<mxfile host="app.diagrams.net" modified="2023-05-01T14:24:06.132Z" agent="Mozilla/5.0 (Windows NT 10.0; Win64; x64) AppleWebKit/537.36 (KHTML, like Gecko) Chrome/112.0.0.0 Safari/537.36" etag="SZR8bKBwe_jW04ZB8_gW" version="21.2.3" type="device">
  <diagram name="Page-1" id="LxJDUdx0UqhPHYZFEm9l">
    <mxGraphModel dx="724" dy="361" grid="1" gridSize="10" guides="1" tooltips="1" connect="1" arrows="1" fold="1" page="1" pageScale="1" pageWidth="850" pageHeight="1100" math="0" shadow="0">
      <root>
        <mxCell id="0" />
        <mxCell id="1" parent="0" />
        <mxCell id="HWU1t4tDOxBH93U_WdOO-7" value="&lt;b&gt;USER&lt;/b&gt;" style="shape=umlActor;verticalLabelPosition=bottom;verticalAlign=top;html=1;outlineConnect=0;" vertex="1" parent="1">
          <mxGeometry x="80" y="170" width="30" height="60" as="geometry" />
        </mxCell>
        <mxCell id="HWU1t4tDOxBH93U_WdOO-9" value="" style="whiteSpace=wrap;html=1;" vertex="1" parent="1">
          <mxGeometry x="250" y="50" width="190" height="290" as="geometry" />
        </mxCell>
        <mxCell id="HWU1t4tDOxBH93U_WdOO-10" value="&lt;b&gt;Signup&lt;/b&gt;" style="ellipse;whiteSpace=wrap;html=1;" vertex="1" parent="1">
          <mxGeometry x="297.5" y="60" width="92.5" height="30" as="geometry" />
        </mxCell>
        <mxCell id="HWU1t4tDOxBH93U_WdOO-11" value="&lt;b&gt;Login&lt;/b&gt;" style="ellipse;whiteSpace=wrap;html=1;" vertex="1" parent="1">
          <mxGeometry x="298.75" y="100" width="92.5" height="30" as="geometry" />
        </mxCell>
        <mxCell id="HWU1t4tDOxBH93U_WdOO-12" value="&lt;b&gt;Update profile&lt;/b&gt;" style="ellipse;whiteSpace=wrap;html=1;" vertex="1" parent="1">
          <mxGeometry x="298.75" y="140" width="92.5" height="30" as="geometry" />
        </mxCell>
        <mxCell id="HWU1t4tDOxBH93U_WdOO-13" value="&lt;b&gt;Add custom product&lt;/b&gt;" style="ellipse;whiteSpace=wrap;html=1;" vertex="1" parent="1">
          <mxGeometry x="298.75" y="180" width="92.5" height="30" as="geometry" />
        </mxCell>
        <mxCell id="HWU1t4tDOxBH93U_WdOO-14" value="&lt;b&gt;&lt;font style=&quot;font-size: 8px;&quot;&gt;Search products/categories&lt;/font&gt;&lt;/b&gt;" style="ellipse;whiteSpace=wrap;html=1;" vertex="1" parent="1">
          <mxGeometry x="297.5" y="220" width="92.5" height="30" as="geometry" />
        </mxCell>
        <mxCell id="HWU1t4tDOxBH93U_WdOO-15" value="&lt;font size=&quot;1&quot;&gt;&lt;b style=&quot;font-size: 8px;&quot;&gt;Add/remove from cart&lt;/b&gt;&lt;/font&gt;" style="ellipse;whiteSpace=wrap;html=1;" vertex="1" parent="1">
          <mxGeometry x="297.5" y="260" width="92.5" height="30" as="geometry" />
        </mxCell>
        <mxCell id="HWU1t4tDOxBH93U_WdOO-17" value="" style="endArrow=classic;html=1;rounded=0;exitX=1;exitY=0.3333333333333333;exitDx=0;exitDy=0;exitPerimeter=0;entryX=0;entryY=0.5;entryDx=0;entryDy=0;" edge="1" parent="1" source="HWU1t4tDOxBH93U_WdOO-7" target="HWU1t4tDOxBH93U_WdOO-10">
          <mxGeometry width="50" height="50" relative="1" as="geometry">
            <mxPoint x="350" y="200" as="sourcePoint" />
            <mxPoint x="400" y="150" as="targetPoint" />
          </mxGeometry>
        </mxCell>
        <mxCell id="HWU1t4tDOxBH93U_WdOO-18" value="" style="endArrow=classic;html=1;rounded=0;exitX=1;exitY=0.3333333333333333;exitDx=0;exitDy=0;exitPerimeter=0;entryX=0;entryY=0.5;entryDx=0;entryDy=0;" edge="1" parent="1" source="HWU1t4tDOxBH93U_WdOO-7" target="HWU1t4tDOxBH93U_WdOO-11">
          <mxGeometry width="50" height="50" relative="1" as="geometry">
            <mxPoint x="350" y="200" as="sourcePoint" />
            <mxPoint x="400" y="150" as="targetPoint" />
          </mxGeometry>
        </mxCell>
        <mxCell id="HWU1t4tDOxBH93U_WdOO-19" value="" style="endArrow=classic;html=1;rounded=0;exitX=1;exitY=0.3333333333333333;exitDx=0;exitDy=0;exitPerimeter=0;entryX=0;entryY=0.5;entryDx=0;entryDy=0;" edge="1" parent="1" source="HWU1t4tDOxBH93U_WdOO-7" target="HWU1t4tDOxBH93U_WdOO-12">
          <mxGeometry width="50" height="50" relative="1" as="geometry">
            <mxPoint x="350" y="200" as="sourcePoint" />
            <mxPoint x="400" y="150" as="targetPoint" />
          </mxGeometry>
        </mxCell>
        <mxCell id="HWU1t4tDOxBH93U_WdOO-20" value="" style="endArrow=classic;html=1;rounded=0;entryX=0;entryY=0.5;entryDx=0;entryDy=0;" edge="1" parent="1" target="HWU1t4tDOxBH93U_WdOO-13">
          <mxGeometry width="50" height="50" relative="1" as="geometry">
            <mxPoint x="110" y="190" as="sourcePoint" />
            <mxPoint x="400" y="210" as="targetPoint" />
          </mxGeometry>
        </mxCell>
        <mxCell id="HWU1t4tDOxBH93U_WdOO-21" value="" style="endArrow=classic;html=1;rounded=0;entryX=0;entryY=0.5;entryDx=0;entryDy=0;" edge="1" parent="1" target="HWU1t4tDOxBH93U_WdOO-14">
          <mxGeometry width="50" height="50" relative="1" as="geometry">
            <mxPoint x="110" y="190" as="sourcePoint" />
            <mxPoint x="400" y="210" as="targetPoint" />
          </mxGeometry>
        </mxCell>
        <mxCell id="HWU1t4tDOxBH93U_WdOO-22" value="" style="endArrow=classic;html=1;rounded=0;entryX=0;entryY=0.5;entryDx=0;entryDy=0;" edge="1" parent="1" target="HWU1t4tDOxBH93U_WdOO-15">
          <mxGeometry width="50" height="50" relative="1" as="geometry">
            <mxPoint x="110" y="190" as="sourcePoint" />
            <mxPoint x="400" y="210" as="targetPoint" />
          </mxGeometry>
        </mxCell>
        <mxCell id="HWU1t4tDOxBH93U_WdOO-24" value="&lt;b&gt;Checkout&lt;/b&gt;" style="ellipse;whiteSpace=wrap;html=1;" vertex="1" parent="1">
          <mxGeometry x="295.63" y="300" width="96.25" height="30" as="geometry" />
        </mxCell>
        <mxCell id="HWU1t4tDOxBH93U_WdOO-25" value="" style="endArrow=classic;html=1;rounded=0;entryX=0;entryY=0.5;entryDx=0;entryDy=0;" edge="1" parent="1" target="HWU1t4tDOxBH93U_WdOO-24">
          <mxGeometry width="50" height="50" relative="1" as="geometry">
            <mxPoint x="110" y="190" as="sourcePoint" />
            <mxPoint x="400" y="210" as="targetPoint" />
          </mxGeometry>
        </mxCell>
      </root>
    </mxGraphModel>
  </diagram>
</mxfile>
